<svg width="24" height="24" viewBox="0 0 24 24" fill="none" xmlns="http://www.w3.org/2000/svg">
<path fill-rule="evenodd" clip-rule="evenodd" d="M18.9857 13.9875C19.6497 12.9457 20.0016 11.7355 19.9997 10.5C19.9997 6.91001 17.0897 4.00001 13.4997 4.00001C12.2162 4.00001 11.0197 4.37201 10.0122 5.01351C9.34166 5.05111 8.678 5.16827 8.03516 5.36251C8.73573 4.61558 9.58223 4.02049 10.5222 3.61411C11.4622 3.20772 12.4756 2.9987 13.4997 3.00001C17.6417 3.00001 20.9997 6.35801 20.9997 10.5C21.0009 11.5241 20.7919 12.5375 20.3855 13.4774C19.9791 14.4174 19.384 15.2639 18.6372 15.9645C18.8277 15.333 18.9472 14.671 18.9857 13.9875Z" fill="#BCBCD3"/>
<path fill-rule="evenodd" clip-rule="evenodd" d="M19.9662 14.3015C19.6041 14.916 19.1567 15.4759 18.6372 15.9645C18.8277 15.333 18.9472 14.671 18.9857 13.9875C19.6497 12.9457 20.0016 11.7355 19.9997 10.5C19.9997 6.91001 17.0897 4.00001 13.4997 4.00001C12.2162 4.00001 11.0197 4.37201 10.0122 5.01351C9.34166 5.05112 8.678 5.16827 8.03516 5.36251C8.52379 4.84303 9.08371 4.39556 9.69816 4.03351C10.8499 3.35483 12.1628 2.9979 13.4997 3.00001C17.6417 3.00001 20.9997 6.35801 20.9997 10.5C21.002 11.8369 20.6451 13.1498 19.9662 14.3015Z" fill="#BCBCD3"/>
<path fill-rule="evenodd" clip-rule="evenodd" d="M18 13.5C18 17.642 14.642 21 10.5 21C6.358 21 3 17.642 3 13.5C3 9.358 6.358 6 10.5 6C14.642 6 18 9.358 18 13.5ZM10 11C9.73478 11 9.48043 11.1054 9.29289 11.2929C9.10536 11.4804 9 11.7348 9 12C9 12.2652 9.10536 12.5196 9.29289 12.7071C9.48043 12.8946 9.73478 13 10 13V11ZM11 10V9.5H10V10C9.46957 10 8.96086 10.2107 8.58579 10.5858C8.21071 10.9609 8 11.4696 8 12C8 12.5304 8.21071 13.0391 8.58579 13.4142C8.96086 13.7893 9.46957 14 10 14V16C9.565 16 9.1945 15.7225 9.0565 15.3335C9.03603 15.2699 9.003 15.211 8.95936 15.1603C8.91573 15.1097 8.86239 15.0683 8.80248 15.0386C8.74257 15.0089 8.67732 14.9916 8.61059 14.9875C8.54386 14.9835 8.47699 14.9929 8.41396 15.0152C8.35092 15.0375 8.29299 15.0721 8.2436 15.1172C8.1942 15.1622 8.15434 15.2167 8.12637 15.2775C8.09841 15.3382 8.0829 15.4039 8.08078 15.4707C8.07865 15.5376 8.08995 15.6041 8.114 15.6665C8.25192 16.0565 8.50734 16.3941 8.8451 16.6329C9.18286 16.8718 9.58634 17 10 17V17.5H11V17C11.5304 17 12.0391 16.7893 12.4142 16.4142C12.7893 16.0391 13 15.5304 13 15C13 14.4696 12.7893 13.9609 12.4142 13.5858C12.0391 13.2107 11.5304 13 11 13V11C11.435 11 11.8055 11.2775 11.9435 11.6665C11.964 11.7301 11.997 11.789 12.0406 11.8397C12.0843 11.8903 12.1376 11.9317 12.1975 11.9614C12.2574 11.9911 12.3227 12.0084 12.3894 12.0125C12.4561 12.0165 12.523 12.0071 12.586 11.9848C12.6491 11.9625 12.707 11.9279 12.7564 11.8828C12.8058 11.8378 12.8457 11.7833 12.8736 11.7225C12.9016 11.6618 12.9171 11.5961 12.9192 11.5293C12.9213 11.4624 12.9101 11.3959 12.886 11.3335C12.7481 10.9435 12.4927 10.6059 12.1549 10.3671C11.8171 10.1282 11.4137 10 11 10ZM11 14V16C11.2652 16 11.5196 15.8946 11.7071 15.7071C11.8946 15.5196 12 15.2652 12 15C12 14.7348 11.8946 14.4804 11.7071 14.2929C11.5196 14.1054 11.2652 14 11 14Z" fill="#BCBCD3"/>
</svg>
