<svg width="14" height="14" viewBox="0 0 14 14" fill="none" xmlns="http://www.w3.org/2000/svg">
<path d="M13.5864 0.413819C13.5105 0.338261 13.4146 0.285946 13.31 0.263028C13.2054 0.24011 13.0964 0.24754 12.9958 0.284444L0.620823 4.78444C0.514099 4.82492 0.422216 4.89692 0.357377 4.99086C0.292538 5.0848 0.257812 5.19624 0.257812 5.31038C0.257812 5.42453 0.292538 5.53597 0.357377 5.62991C0.422216 5.72385 0.514099 5.79584 0.620823 5.83632L5.4527 7.76569L9.01895 4.18819L9.81207 4.98132L6.22895 8.56444L8.16395 13.3963C8.20563 13.501 8.27778 13.5907 8.37105 13.6539C8.46432 13.7171 8.57442 13.7508 8.68707 13.7507C8.80075 13.7484 8.91104 13.7116 9.00343 13.6454C9.09581 13.5791 9.16594 13.4864 9.20457 13.3794L13.7046 1.00444C13.7429 0.904925 13.7521 0.796561 13.7312 0.691989C13.7103 0.587416 13.6601 0.490944 13.5864 0.413819Z" fill="white"/>
</svg>
